<svg width="160" height="122" viewBox="0 0 160 122" fill="none" xmlns="http://www.w3.org/2000/svg">
    <path
        d="M10 62.75C14.4183 62.75 18 59.1683 18 54.75C18 50.3317 14.4183 46.75 10 46.75C5.58172 46.75 2 50.3317 2 54.75C2 59.1683 5.58172 62.75 10 62.75Z"
        fill="#EAF0F6" />
    <path
        d="M77.5 14C80.5376 14 83 11.5376 83 8.5C83 5.46243 80.5376 3 77.5 3C74.4624 3 72 5.46243 72 8.5C72 11.5376 74.4624 14 77.5 14Z"
        fill="#EAF0F6" />
    <path
        d="M146 82.25C150.418 82.25 154 78.6683 154 74.25C154 69.8317 150.418 66.25 146 66.25C141.582 66.25 138 69.8317 138 74.25C138 78.6683 141.582 82.25 146 82.25Z"
        fill="#EAF0F6" />
    <path
        d="M117 121.25C121.418 121.25 125 117.668 125 113.25C125 108.832 121.418 105.25 117 105.25C112.582 105.25 109 108.832 109 113.25C109 117.668 112.582 121.25 117 121.25Z"
        fill="#EAF0F6" />
    <path d="M160 0.75H128V28.75H160V0.75Z" fill="#00D448" />
    <path d="M36 8.75H4V26.75H36V8.75Z" fill="#00D448" />
    <path d="M130 24.75H126V28.75H130V24.75Z" fill="#2A2A2A" />
    <path d="M4 74.75H0V78.75H4V74.75Z" fill="#2A2A2A" />
    <path d="M120 72.25H116V76.25H120V72.25Z" fill="#2A2A2A" />
    <path d="M138 72.25H134V76.25H138V72.25Z" fill="#2A2A2A" />
    <path d="M158 72.25H142V76.25H158V72.25Z" fill="#2A2A2A" />
    <path d="M36 93.1641H8V103.164H36V93.1641Z" fill="#00D448" />
    <path d="M143 8.25H135V12.25H143V8.25Z" fill="#2A2A2A" />
    <path d="M143 16.25H135V20.25H143V16.25Z" fill="#2A2A2A" />
    <path d="M147 51.25V47.25H151V43.25H147V39.25H143V43.25H139V47.25H143V51.25H147Z" fill="#2A2A2A" />
    <path d="M39.17 115.163H0V119.163H40.83L55 103.748L52.17 100.918L39.17 115.163Z" fill="#2A2A2A" />
    <path d="M32 85.1641H0V111.164H32V85.1641ZM28 107.164H4V89.1641H28V107.164Z" fill="#2A2A2A" />
    <path fill-rule="evenodd" clip-rule="evenodd"
        d="M31 66.25C31 40.845 51.595 20.25 77 20.25C102.405 20.25 123 40.845 123 66.25C123 91.655 102.405 112.25 77 112.25C51.595 112.25 31 91.655 31 66.25ZM38 66.75C38 45.211 55.461 27.75 77 27.75C98.539 27.75 116 45.211 116 66.75C116 88.289 98.539 105.75 77 105.75C55.461 105.75 38 88.289 38 66.75Z"
        fill="#2A2A2A" />
    <path d="M13 11H1V15H13V11Z" fill="#2A2A2A" />
    <path d="M13 3H1V7H13V3Z" fill="#2A2A2A" />
    <path d="M13 19H1V23H13V19Z" fill="#2A2A2A" />
    <rect x="93.3203" y="47" width="6.9728" height="48.8096" transform="rotate(45 93.3203 47)"
        fill="#00D448" />
    <path d="M158 98.25H128V102.25H158V98.25Z" fill="#2A2A2A" />
    <path d="M158 106.25H146V110.25H158V106.25Z" fill="#2A2A2A" />
    <path d="M158 114.25H146V118.25H158V114.25Z" fill="#2A2A2A" />
    <rect width="6.9728" height="48.8096"
        transform="matrix(-0.707107 0.707107 0.707107 0.707107 63.6836 47)" fill="#00D448" />
</svg>
    