<svg width="164" height="148" viewBox="0 0 164 148" fill="none" xmlns="http://www.w3.org/2000/svg">
    <path d="M116 72H76V76H116V72Z" fill="#EAF0F6" />
    <path d="M88 52H76V40H88V52ZM80 48H84V44H80V48Z" fill="#EAF0F6" />
    <path d="M88 68H76V56H88V68ZM80 64H84V60H80V64Z" fill="#EAF0F6" />
    <path d="M104 68H92V56H104V68ZM96 64H100V60H96V64Z" fill="#EAF0F6" />
    <path d="M104 52H92V40H104V52ZM96 48H100V44H96V48Z" fill="#EAF0F6" />
    <path d="M140 52H128V40H140V52ZM132 48H136V44H132V48Z" fill="#EAF0F6" />
    <path d="M156 52H144V40H156V52ZM148 48H152V44H148V48Z" fill="#EAF0F6" />
    <path d="M156 56H128V60H156V56Z" fill="#EAF0F6" />
    <path d="M148 64H128V68H148V64Z" fill="#EAF0F6" />
    <path d="M156 64H152V68H156V64Z" fill="#EAF0F6" />
    <path d="M156 72H128V76H156V72Z" fill="#EAF0F6" />
    <path d="M156 88H80V92H156V88Z" fill="#EAF0F6" />
    <path d="M156 80H128V84H156V80Z" fill="#EAF0F6" />
    <path d="M116 24H76V28H116V24Z" fill="#EAF0F6" />
    <path d="M116 32H76V36H116V32Z" fill="#EAF0F6" />
    <path d="M116 40H108V44H116V40Z" fill="#EAF0F6" />
    <path d="M116 48H108V52H116V48Z" fill="#EAF0F6" />
    <path d="M116 56H108V60H116V56Z" fill="#EAF0F6" />
    <path d="M116 64H108V68H116V64Z" fill="#EAF0F6" />
    <path d="M8 102H0V106H8V102Z" fill="#EAF0F6" />
    <path d="M8 122H0V126H8V122Z" fill="#EAF0F6" />
    <path
        d="M86 120C90.4183 120 94 116.418 94 112C94 107.582 90.4183 104 86 104C81.5817 104 78 107.582 78 112C78 116.418 81.5817 120 86 120Z"
        fill="#2A2A2A" />
    <path
        d="M86 140C90.4183 140 94 136.418 94 132C94 127.582 90.4183 124 86 124C81.5817 124 78 127.582 78 132C78 136.418 81.5817 140 86 140Z"
        fill="#2A2A2A" />
    <path d="M132 112H98V116H132V112Z" fill="#EAF0F6" />
    <path
        d="M106 140C110.418 140 114 136.418 114 132C114 127.582 110.418 124 106 124C101.582 124 98 127.582 98 132C98 136.418 101.582 140 106 140Z"
        fill="#2A2A2A" />
    <path d="M132 120H118V124H132V120Z" fill="#EAF0F6" />
    <path d="M122 128H118V132H122V128Z" fill="#EAF0F6" />
    <path d="M122 136H118V140H122V136Z" fill="#EAF0F6" />
    <path d="M140 112H136V116H140V112Z" fill="#EAF0F6" />
    <path d="M148 112H144V116H148V112Z" fill="#EAF0F6" />
    <path d="M156 112H152V116H156V112Z" fill="#EAF0F6" />
    <path d="M164 112H160V116H164V112Z" fill="#EAF0F6" />
    <path d="M68 96H64V100H68V96Z" fill="#EAF0F6" />
    <path d="M68 88H64V92H68V88Z" fill="#EAF0F6" />
    <path d="M122 144H78V148H122V144Z" fill="#EAF0F6" />
    <path d="M140 16H136V20H140V16Z" fill="#EAF0F6" />
    <path d="M140 8H136V12H140V8Z" fill="#EAF0F6" />
    <path d="M140 0H136V4H140V0Z" fill="#EAF0F6" />
    <path d="M8 8H0V12H8V8Z" fill="#EAF0F6" />
    <path d="M8 16H0V20H8V16Z" fill="#EAF0F6" />
    <path
        d="M124 8H12V84H72V100H164V24H124V8ZM120 12V16H16V12H120ZM16 20H120V80H16V20ZM76 96V84H124V36H160V96H76ZM160 28V32H124V28H160Z"
        fill="#00D448" />
    <path d="M86 110H0V114H86V110Z" fill="#00D448" />
    <path d="M86 130H0V134H86V130Z" fill="#00D448" />
    <path
        d="M63.7248 40.76L68.6298 35.855L60.1448 27.37L55.2398 32.275C54.1998 31.73 53.1198 31.28 52.0048 30.93V24H40.0048V30.93C38.8898 31.28 37.8098 31.73 36.7698 32.275L31.8648 27.37L23.3798 35.855L28.2848 40.76C27.7398 41.8 27.2898 42.88 26.9398 43.995H20.0098V55.995H26.9398C27.2898 57.11 27.7398 58.195 28.2848 59.235L23.3798 64.14L31.8648 72.625L36.7698 67.72C37.8098 68.265 38.8898 68.715 40.0048 69.065V75.995H52.0048V69.065C53.1198 68.715 54.2048 68.265 55.2398 67.72L60.1448 72.625L68.6298 64.14L63.7248 59.235C64.2698 58.195 64.7198 57.11 65.0698 55.995H71.9998V43.995H65.0698C64.7198 42.88 64.2698 41.8 63.7248 40.76ZM67.9998 52H61.9398L61.5848 53.555C61.1848 55.305 60.4948 56.97 59.5298 58.5L58.6798 59.85L62.9648 64.135L60.1348 66.965L55.8498 62.68L54.4998 63.53C52.9698 64.495 51.3048 65.185 49.5548 65.585L47.9998 65.94V71.995H43.9998V65.94L42.4448 65.585C40.6898 65.185 39.0248 64.495 37.4998 63.53L36.1498 62.68L31.8648 66.965L29.0348 64.135L33.3198 59.85L32.4698 58.5C31.5048 56.97 30.8148 55.305 30.4148 53.555L30.0598 52H23.9998V48H30.0598L30.4148 46.445C30.8148 44.695 31.5048 43.03 32.4698 41.5L33.3198 40.15L29.0348 35.86L31.8648 33.03L36.1498 37.315L37.4998 36.465C39.0298 35.5 40.6948 34.81 42.4448 34.41L43.9998 34.055V27.995H47.9998V34.055L49.5548 34.41C51.3048 34.81 52.9698 35.5 54.4998 36.465L55.8498 37.315L60.1348 33.03L62.9648 35.86L58.6798 40.15L59.5298 41.5C60.4948 43.03 61.1848 44.695 61.5848 46.445L61.9398 48H67.9998V52Z"
        fill="#00D448" />
    <path
        d="M46 40C40.485 40 36 44.485 36 50C36 55.515 40.485 60 46 60C51.515 60 56 55.515 56 50C56 44.485 51.515 40 46 40ZM46 56C42.69 56 40 53.31 40 50C40 46.69 42.69 44 46 44C49.31 44 52 46.69 52 50C52 53.31 49.31 56 46 56Z"
        fill="#00D448" />
</svg>
    