<svg width="1600" height="238" viewBox="0 0 1600 238" fill="none" xmlns="http://www.w3.org/2000/svg">
    <path d="M834 72H794V76H834V72Z" fill="#EAF0F6" />
    <path d="M806 52H794V40H806V52ZM798 48H802V44H798V48Z" fill="#EAF0F6" />
    <path d="M806 68H794V56H806V68ZM798 64H802V60H798V64Z" fill="#EAF0F6" />
    <path d="M822 68H810V56H822V68ZM814 64H818V60H814V64Z" fill="#EAF0F6" />
    <path d="M822 52H810V40H822V52ZM814 48H818V44H814V48Z" fill="#EAF0F6" />
    <path d="M858 52H846V40H858V52ZM850 48H854V44H850V48Z" fill="#EAF0F6" />
    <path d="M874 52H862V40H874V52ZM866 48H870V44H866V48Z" fill="#EAF0F6" />
    <path d="M874 56H846V60H874V56Z" fill="#EAF0F6" />
    <path d="M866 64H846V68H866V64Z" fill="#EAF0F6" />
    <path d="M874 64H870V68H874V64Z" fill="#EAF0F6" />
    <path d="M874 72H846V76H874V72Z" fill="#EAF0F6" />
    <path d="M874 88H798V92H874V88Z" fill="#EAF0F6" />
    <path d="M874 80H846V84H874V80Z" fill="#EAF0F6" />
    <path d="M834 24H794V28H834V24Z" fill="#EAF0F6" />
    <path d="M834 32H794V36H834V32Z" fill="#EAF0F6" />
    <path d="M834 40H826V44H834V40Z" fill="#EAF0F6" />
    <path d="M834 48H826V52H834V48Z" fill="#EAF0F6" />
    <path d="M834 56H826V60H834V56Z" fill="#EAF0F6" />
    <path d="M834 64H826V68H834V64Z" fill="#EAF0F6" />
    <path d="M726 102H718V106H726V102Z" fill="#EAF0F6" />
    <path d="M726 122H718V126H726V122Z" fill="#EAF0F6" />
    <path
        d="M804 120C808.418 120 812 116.418 812 112C812 107.582 808.418 104 804 104C799.582 104 796 107.582 796 112C796 116.418 799.582 120 804 120Z"
        fill="#2A2A2A" />
    <path
        d="M804 140C808.418 140 812 136.418 812 132C812 127.582 808.418 124 804 124C799.582 124 796 127.582 796 132C796 136.418 799.582 140 804 140Z"
        fill="#2A2A2A" />
    <path d="M850 112H816V116H850V112Z" fill="#EAF0F6" />
    <path
        d="M824 140C828.418 140 832 136.418 832 132C832 127.582 828.418 124 824 124C819.582 124 816 127.582 816 132C816 136.418 819.582 140 824 140Z"
        fill="#2A2A2A" />
    <path d="M850 120H836V124H850V120Z" fill="#EAF0F6" />
    <path d="M840 128H836V132H840V128Z" fill="#EAF0F6" />
    <path d="M840 136H836V140H840V136Z" fill="#EAF0F6" />
    <path d="M858 112H854V116H858V112Z" fill="#EAF0F6" />
    <path d="M866 112H862V116H866V112Z" fill="#EAF0F6" />
    <path d="M874 112H870V116H874V112Z" fill="#EAF0F6" />
    <path d="M882 112H878V116H882V112Z" fill="#EAF0F6" />
    <path d="M786 96H782V100H786V96Z" fill="#EAF0F6" />
    <path d="M786 88H782V92H786V88Z" fill="#EAF0F6" />
    <path d="M840 144H796V148H840V144Z" fill="#EAF0F6" />
    <path d="M858 16H854V20H858V16Z" fill="#EAF0F6" />
    <path d="M858 8H854V12H858V8Z" fill="#EAF0F6" />
    <path d="M858 0H854V4H858V0Z" fill="#EAF0F6" />
    <path d="M726 8H718V12H726V8Z" fill="#EAF0F6" />
    <path d="M726 16H718V20H726V16Z" fill="#EAF0F6" />
    <path
        d="M842 8H730V84H790V100H882V24H842V8ZM838 12V16H734V12H838ZM734 20H838V80H734V20ZM794 96V84H842V36H878V96H794ZM878 28V32H842V28H878Z"
        fill="#00D448" />
    <path d="M804 110H718V114H804V110Z" fill="#00D448" />
    <path d="M804 130H718V134H804V130Z" fill="#00D448" />
    <path
        d="M781.725 40.76L786.63 35.855L778.145 27.37L773.24 32.275C772.2 31.73 771.12 31.28 770.005 30.93V24H758.005V30.93C756.89 31.28 755.81 31.73 754.77 32.275L749.865 27.37L741.38 35.855L746.285 40.76C745.74 41.8 745.29 42.88 744.94 43.995H738.01V55.995H744.94C745.29 57.11 745.74 58.195 746.285 59.235L741.38 64.14L749.865 72.625L754.77 67.72C755.81 68.265 756.89 68.715 758.005 69.065V75.995H770.005V69.065C771.12 68.715 772.205 68.265 773.24 67.72L778.145 72.625L786.63 64.14L781.725 59.235C782.27 58.195 782.72 57.11 783.07 55.995H790V43.995H783.07C782.72 42.88 782.27 41.8 781.725 40.76ZM786 52H779.94L779.585 53.555C779.185 55.305 778.495 56.97 777.53 58.5L776.68 59.85L780.965 64.135L778.135 66.965L773.85 62.68L772.5 63.53C770.97 64.495 769.305 65.185 767.555 65.585L766 65.94V71.995H762V65.94L760.445 65.585C758.69 65.185 757.025 64.495 755.5 63.53L754.15 62.68L749.865 66.965L747.035 64.135L751.32 59.85L750.47 58.5C749.505 56.97 748.815 55.305 748.415 53.555L748.06 52H742V48H748.06L748.415 46.445C748.815 44.695 749.505 43.03 750.47 41.5L751.32 40.15L747.035 35.86L749.865 33.03L754.15 37.315L755.5 36.465C757.03 35.5 758.695 34.81 760.445 34.41L762 34.055V27.995H766V34.055L767.555 34.41C769.305 34.81 770.97 35.5 772.5 36.465L773.85 37.315L778.135 33.03L780.965 35.86L776.68 40.15L777.53 41.5C778.495 43.03 779.185 44.695 779.585 46.445L779.94 48H786V52Z"
        fill="#00D448" />
    <path
        d="M764 40C758.485 40 754 44.485 754 50C754 55.515 758.485 60 764 60C769.515 60 774 55.515 774 50C774 44.485 769.515 40 764 40ZM764 56C760.69 56 758 53.31 758 50C758 46.69 760.69 44 764 44C767.31 44 770 46.69 770 50C770 53.31 767.31 56 764 56Z"
        fill="#00D448" />
    <path
        d="M683.815 203.33C681.835 203.33 680.075 202.75 678.535 201.59C676.995 200.41 676.115 198.78 675.895 196.7H680.575C681.195 198.14 682.325 198.86 683.965 198.86C684.845 198.86 685.605 198.56 686.245 197.96C686.905 197.36 687.235 196.62 687.235 195.74C687.235 194.98 687.005 194.33 686.545 193.79C686.085 193.25 685.375 192.98 684.415 192.98C682.855 192.98 681.715 193.72 680.995 195.2L676.975 193.85L681.985 181.7H693.145L692.215 186.08H684.865L683.485 189.35C684.225 189.05 685.065 188.9 686.005 188.9C687.705 188.9 689.085 189.53 690.145 190.79C691.225 192.05 691.765 193.58 691.765 195.38C691.765 197.74 691.095 199.66 689.755 201.14C688.435 202.6 686.455 203.33 683.815 203.33ZM702.78 203.33C700.18 203.33 698.23 202.46 696.93 200.72C695.63 198.98 695.26 196.76 695.82 194.06L696.81 189.2C697.31 186.72 698.3 184.79 699.78 183.41C701.28 182.03 703.22 181.34 705.6 181.34C708.18 181.34 710.12 182.21 711.42 183.95C712.74 185.69 713.12 187.91 712.56 190.61L711.57 195.47C711.07 197.93 710.07 199.86 708.57 201.26C707.09 202.64 705.16 203.33 702.78 203.33ZM703.05 198.86C705.25 198.86 706.61 197.61 707.13 195.11L708.24 189.86C708.52 188.64 708.37 187.66 707.79 186.92C707.21 186.18 706.39 185.81 705.33 185.81C703.13 185.81 701.77 187.06 701.25 189.56L700.14 194.81C699.86 196.03 700.01 197.01 700.59 197.75C701.17 198.49 701.99 198.86 703.05 198.86ZM722.706 203.33C720.106 203.33 718.156 202.46 716.856 200.72C715.556 198.98 715.186 196.76 715.746 194.06L716.736 189.2C717.236 186.72 718.226 184.79 719.706 183.41C721.206 182.03 723.146 181.34 725.526 181.34C728.106 181.34 730.046 182.21 731.346 183.95C732.666 185.69 733.046 187.91 732.486 190.61L731.496 195.47C730.996 197.93 729.996 199.86 728.496 201.26C727.016 202.64 725.086 203.33 722.706 203.33ZM722.976 198.86C725.176 198.86 726.536 197.61 727.056 195.11L728.166 189.86C728.446 188.64 728.296 187.66 727.716 186.92C727.136 186.18 726.316 185.81 725.256 185.81C723.056 185.81 721.696 187.06 721.176 189.56L720.066 194.81C719.786 196.03 719.936 197.01 720.516 197.75C721.096 198.49 721.916 198.86 722.976 198.86ZM750.43 203.36C749.03 203.36 747.78 203.15 746.68 202.73C745.58 202.29 744.71 201.71 744.07 200.99C743.45 200.27 742.98 199.5 742.66 198.68C742.36 197.86 742.22 197.02 742.24 196.16H747.01C747.09 197 747.46 197.68 748.12 198.2C748.78 198.7 749.59 198.95 750.55 198.95C751.29 198.95 751.89 198.77 752.35 198.41C752.81 198.03 753.04 197.57 753.04 197.03C753.04 196.43 752.83 195.94 752.41 195.56C752.01 195.16 751.32 194.77 750.34 194.39L749.26 193.97C747.9 193.45 746.8 192.67 745.96 191.63C745.12 190.57 744.7 189.3 744.7 187.82C744.7 185.98 745.39 184.44 746.77 183.2C748.17 181.96 749.96 181.34 752.14 181.34C754.4 181.34 756.19 182.02 757.51 183.38C758.85 184.74 759.52 186.28 759.52 188H754.78C754.66 187.28 754.32 186.73 753.76 186.35C753.2 185.95 752.57 185.75 751.87 185.75C751.21 185.75 750.65 185.91 750.19 186.23C749.75 186.55 749.53 186.98 749.53 187.52C749.53 188.04 749.71 188.47 750.07 188.81C750.45 189.13 751.02 189.45 751.78 189.77L753.31 190.37C756.37 191.57 757.9 193.73 757.9 196.85C757.9 198.77 757.22 200.34 755.86 201.56C754.5 202.76 752.69 203.36 750.43 203.36ZM768.529 203.33C766.309 203.33 764.539 202.63 763.219 201.23C761.899 199.81 761.239 198.13 761.239 196.19C761.239 193.69 762.009 191.65 763.549 190.07C765.089 188.47 767.179 187.67 769.819 187.67C772.159 187.67 774.039 188.5 775.459 190.16C776.899 191.82 777.389 193.95 776.929 196.55H765.469C765.569 197.41 765.939 198.11 766.579 198.65C767.219 199.17 767.959 199.43 768.799 199.43C770.179 199.43 771.179 198.96 771.799 198.02H776.599C775.159 201.56 772.469 203.33 768.529 203.33ZM769.339 191.27C768.559 191.27 767.819 191.48 767.119 191.9C766.439 192.32 765.959 192.91 765.679 193.67H772.399C772.279 192.87 771.919 192.27 771.319 191.87C770.739 191.47 770.079 191.27 769.339 191.27ZM779.332 203L782.512 188H787.042L786.592 190.07C786.932 189.39 787.472 188.85 788.212 188.45C788.952 188.03 789.772 187.82 790.672 187.82C791.212 187.82 791.682 187.88 792.082 188L791.122 192.59C790.462 192.35 789.842 192.23 789.262 192.23C788.262 192.23 787.422 192.56 786.742 193.22C786.062 193.88 785.602 194.77 785.362 195.89L783.862 203H779.332ZM797.052 203L793.662 188H798.132L799.992 197.45L805.872 188H811.002L801.252 203H797.052ZM818.316 203.33C816.096 203.33 814.326 202.63 813.006 201.23C811.686 199.81 811.026 198.13 811.026 196.19C811.026 193.69 811.796 191.65 813.336 190.07C814.876 188.47 816.966 187.67 819.606 187.67C821.946 187.67 823.826 188.5 825.246 190.16C826.686 191.82 827.176 193.95 826.716 196.55H815.256C815.356 197.41 815.726 198.11 816.366 198.65C817.006 199.17 817.746 199.43 818.586 199.43C819.966 199.43 820.966 198.96 821.586 198.02H826.386C824.946 201.56 822.256 203.33 818.316 203.33ZM819.126 191.27C818.346 191.27 817.606 191.48 816.906 191.9C816.226 192.32 815.746 192.91 815.466 193.67H822.186C822.066 192.87 821.706 192.27 821.106 191.87C820.526 191.47 819.866 191.27 819.126 191.27ZM829.119 203L832.299 188H836.829L836.379 190.07C836.719 189.39 837.259 188.85 837.999 188.45C838.739 188.03 839.559 187.82 840.459 187.82C840.999 187.82 841.469 187.88 841.869 188L840.909 192.59C840.249 192.35 839.629 192.23 839.049 192.23C838.049 192.23 837.209 192.56 836.529 193.22C835.849 193.88 835.389 194.77 835.149 195.89L833.649 203H829.119ZM857.293 203.33C855.073 203.33 853.303 202.63 851.983 201.23C850.663 199.81 850.003 198.13 850.003 196.19C850.003 193.69 850.773 191.65 852.313 190.07C853.853 188.47 855.943 187.67 858.583 187.67C860.923 187.67 862.803 188.5 864.223 190.16C865.663 191.82 866.153 193.95 865.693 196.55H854.233C854.333 197.41 854.703 198.11 855.343 198.65C855.983 199.17 856.723 199.43 857.563 199.43C858.943 199.43 859.943 198.96 860.563 198.02H865.363C863.923 201.56 861.233 203.33 857.293 203.33ZM858.103 191.27C857.323 191.27 856.583 191.48 855.883 191.9C855.203 192.32 854.723 192.91 854.443 193.67H861.163C861.043 192.87 860.683 192.27 860.083 191.87C859.503 191.47 858.843 191.27 858.103 191.27ZM868.095 203L871.275 188H875.805L875.355 190.07C875.695 189.39 876.235 188.85 876.975 188.45C877.715 188.03 878.535 187.82 879.435 187.82C879.975 187.82 880.445 187.88 880.845 188L879.885 192.59C879.225 192.35 878.605 192.23 878.025 192.23C877.025 192.23 876.185 192.56 875.505 193.22C874.825 193.88 874.365 194.77 874.125 195.89L872.625 203H868.095ZM881.166 203L884.346 188H888.876L888.426 190.07C888.766 189.39 889.306 188.85 890.046 188.45C890.786 188.03 891.606 187.82 892.506 187.82C893.046 187.82 893.516 187.88 893.916 188L892.956 192.59C892.296 192.35 891.676 192.23 891.096 192.23C890.096 192.23 889.256 192.56 888.576 193.22C887.896 193.88 887.436 194.77 887.196 195.89L885.696 203H881.166ZM902.341 199.13C903.381 199.13 904.241 198.75 904.921 197.99C905.621 197.23 905.971 196.3 905.971 195.2C905.971 194.18 905.701 193.38 905.161 192.8C904.641 192.2 903.901 191.9 902.941 191.9C901.901 191.9 901.031 192.28 900.331 193.04C899.651 193.8 899.311 194.73 899.311 195.83C899.311 196.85 899.571 197.66 900.091 198.26C900.631 198.84 901.381 199.13 902.341 199.13ZM901.951 203.36C899.671 203.36 897.901 202.67 896.641 201.29C895.381 199.89 894.751 198.2 894.751 196.22C894.751 193.76 895.541 191.72 897.121 190.1C898.721 188.48 900.791 187.67 903.331 187.67C905.611 187.67 907.381 188.37 908.641 189.77C909.901 191.15 910.531 192.83 910.531 194.81C910.531 197.27 909.731 199.31 908.131 200.93C906.551 202.55 904.491 203.36 901.951 203.36ZM912.785 203L915.965 188H920.495L920.045 190.07C920.385 189.39 920.925 188.85 921.665 188.45C922.405 188.03 923.225 187.82 924.125 187.82C924.665 187.82 925.135 187.88 925.535 188L924.575 192.59C923.915 192.35 923.295 192.23 922.715 192.23C921.715 192.23 920.875 192.56 920.195 193.22C919.515 193.88 919.055 194.77 918.815 195.89L917.315 203H912.785Z"
        fill="white" />
    <path opacity="0.5"
        d="M614.653 232V223.292H611.559V222.06H619.021V223.292H615.927V232H614.653ZM621.507 232H620.303V221.5H621.507V226.078C621.983 225.266 622.725 224.86 623.733 224.86C624.526 224.86 625.166 225.117 625.651 225.63C626.136 226.143 626.379 226.829 626.379 227.688V232H625.189V227.87C625.189 227.282 625.04 226.82 624.741 226.484C624.442 226.139 624.041 225.966 623.537 225.966C622.958 225.966 622.473 226.195 622.081 226.652C621.698 227.109 621.507 227.735 621.507 228.528V232ZM631.529 232.14C630.512 232.14 629.667 231.795 628.995 231.104C628.332 230.413 628.001 229.545 628.001 228.5C628.001 227.445 628.323 226.577 628.967 225.896C629.62 225.205 630.484 224.86 631.557 224.86C632.64 224.86 633.489 225.243 634.105 226.008C634.721 226.773 634.992 227.711 634.917 228.822H629.219C629.238 229.457 629.471 229.989 629.919 230.418C630.367 230.838 630.908 231.048 631.543 231.048C632.495 231.048 633.172 230.656 633.573 229.872H634.805C634.628 230.525 634.25 231.067 633.671 231.496C633.092 231.925 632.378 232.14 631.529 232.14ZM632.901 226.428C632.518 226.092 632.056 225.924 631.515 225.924C630.974 225.924 630.488 226.087 630.059 226.414C629.639 226.741 629.378 227.226 629.275 227.87H633.643C633.531 227.235 633.284 226.755 632.901 226.428ZM640.031 232V225H641.235V226.358C641.366 225.929 641.618 225.583 641.991 225.322C642.374 225.061 642.775 224.93 643.195 224.93C643.401 224.93 643.583 224.949 643.741 224.986V226.232C643.573 226.157 643.354 226.12 643.083 226.12C642.598 226.12 642.169 226.33 641.795 226.75C641.422 227.17 641.235 227.763 641.235 228.528V232H640.031ZM647.894 232.14C646.877 232.14 646.032 231.795 645.36 231.104C644.698 230.413 644.366 229.545 644.366 228.5C644.366 227.445 644.688 226.577 645.332 225.896C645.986 225.205 646.849 224.86 647.922 224.86C649.005 224.86 649.854 225.243 650.47 226.008C651.086 226.773 651.357 227.711 651.282 228.822H645.584C645.603 229.457 645.836 229.989 646.284 230.418C646.732 230.838 647.274 231.048 647.908 231.048C648.86 231.048 649.537 230.656 649.938 229.872H651.17C650.993 230.525 650.615 231.067 650.036 231.496C649.458 231.925 648.744 232.14 647.894 232.14ZM649.266 226.428C648.884 226.092 648.422 225.924 647.88 225.924C647.339 225.924 646.854 226.087 646.424 226.414C646.004 226.741 645.743 227.226 645.64 227.87H650.008C649.896 227.235 649.649 226.755 649.266 226.428ZM655.274 232.14C654.49 232.14 653.832 231.949 653.3 231.566C652.777 231.183 652.488 230.651 652.432 229.97H653.664C653.738 230.362 653.925 230.651 654.224 230.838C654.532 231.025 654.886 231.118 655.288 231.118C655.689 231.118 656.011 231.039 656.254 230.88C656.506 230.721 656.632 230.493 656.632 230.194C656.632 229.914 656.538 229.685 656.352 229.508C656.174 229.331 655.88 229.186 655.47 229.074L654.462 228.808C653.258 228.491 652.656 227.805 652.656 226.75C652.656 226.181 652.88 225.723 653.328 225.378C653.785 225.033 654.368 224.86 655.078 224.86C655.796 224.86 656.384 225.051 656.842 225.434C657.308 225.807 657.57 226.283 657.626 226.862H656.422C656.328 226.554 656.16 226.311 655.918 226.134C655.684 225.957 655.404 225.868 655.078 225.868C654.732 225.868 654.443 225.947 654.21 226.106C653.986 226.265 653.874 226.475 653.874 226.736C653.874 226.988 653.958 227.193 654.126 227.352C654.294 227.511 654.564 227.641 654.938 227.744L656.058 228.038C657.252 228.337 657.85 229.027 657.85 230.11C657.85 230.782 657.612 231.291 657.136 231.636C656.66 231.972 656.039 232.14 655.274 232.14ZM662.663 232.14C661.608 232.14 660.731 231.79 660.031 231.09C659.34 230.381 658.995 229.517 658.995 228.5C658.995 227.483 659.34 226.624 660.031 225.924C660.731 225.215 661.608 224.86 662.663 224.86C663.708 224.86 664.576 225.215 665.267 225.924C665.967 226.624 666.317 227.483 666.317 228.5C666.317 229.517 665.967 230.381 665.267 231.09C664.576 231.79 663.708 232.14 662.663 232.14ZM660.899 230.292C661.356 230.777 661.944 231.02 662.663 231.02C663.382 231.02 663.965 230.777 664.413 230.292C664.861 229.807 665.085 229.209 665.085 228.5C665.085 227.791 664.861 227.193 664.413 226.708C663.965 226.223 663.382 225.98 662.663 225.98C661.944 225.98 661.356 226.223 660.899 226.708C660.451 227.193 660.227 227.791 660.227 228.5C660.227 229.209 660.451 229.807 660.899 230.292ZM670.523 232.14C669.758 232.14 669.137 231.883 668.661 231.37C668.185 230.847 667.947 230.157 667.947 229.298V225H669.151V229.116C669.151 229.704 669.291 230.171 669.571 230.516C669.86 230.861 670.248 231.034 670.733 231.034C671.293 231.034 671.755 230.805 672.119 230.348C672.492 229.881 672.679 229.256 672.679 228.472V225H673.883V232H672.679V230.922C672.222 231.734 671.503 232.14 670.523 232.14ZM676.153 232V225H677.357V226.358C677.487 225.929 677.739 225.583 678.113 225.322C678.495 225.061 678.897 224.93 679.317 224.93C679.522 224.93 679.704 224.949 679.863 224.986V226.232C679.695 226.157 679.475 226.12 679.205 226.12C678.719 226.12 678.29 226.33 677.917 226.75C677.543 227.17 677.357 227.763 677.357 228.528V232H676.153ZM684.141 232.14C683.087 232.14 682.214 231.79 681.523 231.09C680.833 230.381 680.487 229.517 680.487 228.5C680.487 227.483 680.833 226.624 681.523 225.924C682.214 225.215 683.087 224.86 684.141 224.86C685.009 224.86 685.761 225.103 686.395 225.588C687.03 226.064 687.455 226.689 687.669 227.464H686.381C686.213 227.007 685.933 226.643 685.541 226.372C685.149 226.101 684.683 225.966 684.141 225.966C683.423 225.966 682.835 226.209 682.377 226.694C681.929 227.179 681.705 227.781 681.705 228.5C681.705 229.219 681.929 229.821 682.377 230.306C682.835 230.791 683.423 231.034 684.141 231.034C684.683 231.034 685.149 230.899 685.541 230.628C685.933 230.357 686.213 229.993 686.381 229.536H687.669C687.464 230.311 687.044 230.941 686.409 231.426C685.775 231.902 685.019 232.14 684.141 232.14ZM692.246 232.14C691.229 232.14 690.384 231.795 689.712 231.104C689.049 230.413 688.718 229.545 688.718 228.5C688.718 227.445 689.04 226.577 689.684 225.896C690.337 225.205 691.201 224.86 692.274 224.86C693.357 224.86 694.206 225.243 694.822 226.008C695.438 226.773 695.709 227.711 695.634 228.822H689.936C689.955 229.457 690.188 229.989 690.636 230.418C691.084 230.838 691.625 231.048 692.26 231.048C693.212 231.048 693.889 230.656 694.29 229.872H695.522C695.345 230.525 694.967 231.067 694.388 231.496C693.809 231.925 693.095 232.14 692.246 232.14ZM693.618 226.428C693.235 226.092 692.773 225.924 692.232 225.924C691.691 225.924 691.205 226.087 690.776 226.414C690.356 226.741 690.095 227.226 689.992 227.87H694.36C694.248 227.235 694.001 226.755 693.618 226.428ZM700.748 232V225H701.952V226.358C702.083 225.929 702.335 225.583 702.708 225.322C703.091 225.061 703.492 224.93 703.912 224.93C704.118 224.93 704.3 224.949 704.458 224.986V226.232C704.29 226.157 704.071 226.12 703.8 226.12C703.315 226.12 702.886 226.33 702.512 226.75C702.139 227.17 701.952 227.763 701.952 228.528V232H700.748ZM708.611 232.14C707.594 232.14 706.749 231.795 706.077 231.104C705.414 230.413 705.083 229.545 705.083 228.5C705.083 227.445 705.405 226.577 706.049 225.896C706.702 225.205 707.566 224.86 708.639 224.86C709.722 224.86 710.571 225.243 711.187 226.008C711.803 226.773 712.074 227.711 711.999 228.822H706.301C706.32 229.457 706.553 229.989 707.001 230.418C707.449 230.838 707.99 231.048 708.625 231.048C709.577 231.048 710.254 230.656 710.655 229.872H711.887C711.71 230.525 711.332 231.067 710.753 231.496C710.174 231.925 709.46 232.14 708.611 232.14ZM709.983 226.428C709.6 226.092 709.138 225.924 708.597 225.924C708.056 225.924 707.57 226.087 707.141 226.414C706.721 226.741 706.46 227.226 706.357 227.87H710.725C710.613 227.235 710.366 226.755 709.983 226.428ZM716.817 235.066C715.893 235.066 715.123 234.837 714.507 234.38C713.9 233.932 713.541 233.353 713.429 232.644H714.605C714.913 233.549 715.659 234.002 716.845 234.002C717.507 234.002 718.039 233.787 718.441 233.358C718.851 232.938 719.057 232.345 719.057 231.58V230.754C718.805 231.127 718.464 231.426 718.035 231.65C717.605 231.874 717.134 231.986 716.621 231.986C715.641 231.986 714.824 231.645 714.171 230.964C713.517 230.273 713.191 229.424 713.191 228.416C713.191 227.417 713.517 226.577 714.171 225.896C714.833 225.205 715.65 224.86 716.621 224.86C717.134 224.86 717.605 224.972 718.035 225.196C718.464 225.42 718.805 225.714 719.057 226.078V225H720.261V231.566C720.261 232.686 719.934 233.549 719.281 234.156C718.637 234.763 717.815 235.066 716.817 235.066ZM715.081 230.18C715.519 230.637 716.089 230.866 716.789 230.866C717.489 230.866 718.058 230.637 718.497 230.18C718.935 229.713 719.155 229.125 719.155 228.416C719.155 227.707 718.931 227.123 718.483 226.666C718.044 226.199 717.479 225.966 716.789 225.966C716.098 225.966 715.529 226.199 715.081 226.666C714.642 227.123 714.423 227.707 714.423 228.416C714.423 229.125 714.642 229.713 715.081 230.18ZM725.006 232.14C724.24 232.14 723.62 231.883 723.144 231.37C722.668 230.847 722.43 230.157 722.43 229.298V225H723.634V229.116C723.634 229.704 723.774 230.171 724.054 230.516C724.343 230.861 724.73 231.034 725.216 231.034C725.776 231.034 726.238 230.805 726.602 230.348C726.975 229.881 727.162 229.256 727.162 228.472V225H728.366V232H727.162V230.922C726.704 231.734 725.986 232.14 725.006 232.14ZM733.617 232.14C732.6 232.14 731.755 231.795 731.083 231.104C730.42 230.413 730.089 229.545 730.089 228.5C730.089 227.445 730.411 226.577 731.055 225.896C731.708 225.205 732.572 224.86 733.645 224.86C734.728 224.86 735.577 225.243 736.193 226.008C736.809 226.773 737.08 227.711 737.005 228.822H731.307C731.326 229.457 731.559 229.989 732.007 230.418C732.455 230.838 732.996 231.048 733.631 231.048C734.583 231.048 735.26 230.656 735.661 229.872H736.893C736.716 230.525 736.338 231.067 735.759 231.496C735.18 231.925 734.466 232.14 733.617 232.14ZM734.989 226.428C734.606 226.092 734.144 225.924 733.603 225.924C733.062 225.924 732.576 226.087 732.147 226.414C731.727 226.741 731.466 227.226 731.363 227.87H735.731C735.619 227.235 735.372 226.755 734.989 226.428ZM740.996 232.14C740.212 232.14 739.554 231.949 739.022 231.566C738.5 231.183 738.21 230.651 738.154 229.97H739.386C739.461 230.362 739.648 230.651 739.946 230.838C740.254 231.025 740.609 231.118 741.01 231.118C741.412 231.118 741.734 231.039 741.976 230.88C742.228 230.721 742.354 230.493 742.354 230.194C742.354 229.914 742.261 229.685 742.074 229.508C741.897 229.331 741.603 229.186 741.192 229.074L740.184 228.808C738.98 228.491 738.378 227.805 738.378 226.75C738.378 226.181 738.602 225.723 739.05 225.378C739.508 225.033 740.091 224.86 740.8 224.86C741.519 224.86 742.107 225.051 742.564 225.434C743.031 225.807 743.292 226.283 743.348 226.862H742.144C742.051 226.554 741.883 226.311 741.64 226.134C741.407 225.957 741.127 225.868 740.8 225.868C740.455 225.868 740.166 225.947 739.932 226.106C739.708 226.265 739.596 226.475 739.596 226.736C739.596 226.988 739.68 227.193 739.848 227.352C740.016 227.511 740.287 227.641 740.66 227.744L741.78 228.038C742.975 228.337 743.572 229.027 743.572 230.11C743.572 230.782 743.334 231.291 742.858 231.636C742.382 231.972 741.762 232.14 740.996 232.14ZM747.884 232.07C747.24 232.07 746.722 231.888 746.33 231.524C745.938 231.16 745.742 230.628 745.742 229.928V226.106H744.258V225H745.742V223.054H746.946V225H748.962V226.106H746.946V229.774C746.946 230.213 747.04 230.521 747.226 230.698C747.413 230.875 747.707 230.964 748.108 230.964C748.463 230.964 748.748 230.917 748.962 230.824V231.902C748.626 232.014 748.267 232.07 747.884 232.07ZM753.387 232.14C752.369 232.14 751.525 231.795 750.853 231.104C750.19 230.413 749.859 229.545 749.859 228.5C749.859 227.445 750.181 226.577 750.825 225.896C751.478 225.205 752.341 224.86 753.415 224.86C754.497 224.86 755.347 225.243 755.963 226.008C756.579 226.773 756.849 227.711 756.775 228.822H751.077C751.095 229.457 751.329 229.989 751.777 230.418C752.225 230.838 752.766 231.048 753.401 231.048C754.353 231.048 755.029 230.656 755.431 229.872H756.663C756.485 230.525 756.107 231.067 755.529 231.496C754.95 231.925 754.236 232.14 753.387 232.14ZM754.759 226.428C754.376 226.092 753.914 225.924 753.373 225.924C752.831 225.924 752.346 226.087 751.917 226.414C751.497 226.741 751.235 227.226 751.133 227.87H755.501C755.389 227.235 755.141 226.755 754.759 226.428ZM761.396 232.14C760.425 232.14 759.609 231.785 758.946 231.076C758.293 230.367 757.966 229.508 757.966 228.5C757.966 227.492 758.293 226.633 758.946 225.924C759.609 225.215 760.425 224.86 761.396 224.86C761.909 224.86 762.385 224.977 762.824 225.21C763.272 225.434 763.617 225.723 763.86 226.078V221.5H765.064V232H763.86V230.922C763.617 231.277 763.272 231.571 762.824 231.804C762.385 232.028 761.909 232.14 761.396 232.14ZM761.578 231.034C762.269 231.034 762.838 230.791 763.286 230.306C763.734 229.821 763.958 229.219 763.958 228.5C763.958 227.781 763.734 227.179 763.286 226.694C762.838 226.209 762.269 225.966 761.578 225.966C760.878 225.966 760.304 226.209 759.856 226.694C759.408 227.179 759.184 227.781 759.184 228.5C759.184 229.219 759.408 229.821 759.856 230.306C760.304 230.791 760.878 231.034 761.578 231.034ZM773.815 232.14C772.761 232.14 771.888 231.79 771.197 231.09C770.507 230.381 770.161 229.517 770.161 228.5C770.161 227.483 770.507 226.624 771.197 225.924C771.888 225.215 772.761 224.86 773.815 224.86C774.683 224.86 775.435 225.103 776.069 225.588C776.704 226.064 777.129 226.689 777.343 227.464H776.055C775.887 227.007 775.607 226.643 775.215 226.372C774.823 226.101 774.357 225.966 773.815 225.966C773.097 225.966 772.509 226.209 772.051 226.694C771.603 227.179 771.379 227.781 771.379 228.5C771.379 229.219 771.603 229.821 772.051 230.306C772.509 230.791 773.097 231.034 773.815 231.034C774.357 231.034 774.823 230.899 775.215 230.628C775.607 230.357 775.887 229.993 776.055 229.536H777.343C777.138 230.311 776.718 230.941 776.083 231.426C775.449 231.902 774.693 232.14 773.815 232.14ZM782.046 232.14C780.991 232.14 780.114 231.79 779.414 231.09C778.723 230.381 778.378 229.517 778.378 228.5C778.378 227.483 778.723 226.624 779.414 225.924C780.114 225.215 780.991 224.86 782.046 224.86C783.091 224.86 783.959 225.215 784.65 225.924C785.35 226.624 785.7 227.483 785.7 228.5C785.7 229.517 785.35 230.381 784.65 231.09C783.959 231.79 783.091 232.14 782.046 232.14ZM780.282 230.292C780.739 230.777 781.327 231.02 782.046 231.02C782.764 231.02 783.348 230.777 783.796 230.292C784.244 229.807 784.468 229.209 784.468 228.5C784.468 227.791 784.244 227.193 783.796 226.708C783.348 226.223 782.764 225.98 782.046 225.98C781.327 225.98 780.739 226.223 780.282 226.708C779.834 227.193 779.61 227.791 779.61 228.5C779.61 229.209 779.834 229.807 780.282 230.292ZM789.906 232.14C789.141 232.14 788.52 231.883 788.044 231.37C787.568 230.847 787.33 230.157 787.33 229.298V225H788.534V229.116C788.534 229.704 788.674 230.171 788.954 230.516C789.243 230.861 789.631 231.034 790.116 231.034C790.676 231.034 791.138 230.805 791.502 230.348C791.875 229.881 792.062 229.256 792.062 228.472V225H793.266V232H792.062V230.922C791.605 231.734 790.886 232.14 789.906 232.14ZM795.535 232V221.5H796.739V232H795.535ZM801.906 232.14C800.935 232.14 800.118 231.785 799.456 231.076C798.802 230.367 798.476 229.508 798.476 228.5C798.476 227.492 798.802 226.633 799.456 225.924C800.118 225.215 800.935 224.86 801.906 224.86C802.419 224.86 802.895 224.977 803.334 225.21C803.782 225.434 804.127 225.723 804.37 226.078V221.5H805.574V232H804.37V230.922C804.127 231.277 803.782 231.571 803.334 231.804C802.895 232.028 802.419 232.14 801.906 232.14ZM802.088 231.034C802.778 231.034 803.348 230.791 803.796 230.306C804.244 229.821 804.468 229.219 804.468 228.5C804.468 227.781 804.244 227.179 803.796 226.694C803.348 226.209 802.778 225.966 802.088 225.966C801.388 225.966 800.814 226.209 800.366 226.694C799.918 227.179 799.694 227.781 799.694 228.5C799.694 229.219 799.918 229.821 800.366 230.306C800.814 230.791 801.388 231.034 802.088 231.034ZM811.217 232V225H812.421V226.078C812.897 225.266 813.639 224.86 814.647 224.86C815.44 224.86 816.08 225.117 816.565 225.63C817.05 226.143 817.293 226.829 817.293 227.688V232H816.103V227.87C816.103 227.282 815.954 226.82 815.655 226.484C815.356 226.139 814.955 225.966 814.451 225.966C813.872 225.966 813.387 226.195 812.995 226.652C812.612 227.109 812.421 227.735 812.421 228.528V232H811.217ZM822.569 232.14C821.514 232.14 820.637 231.79 819.937 231.09C819.246 230.381 818.901 229.517 818.901 228.5C818.901 227.483 819.246 226.624 819.937 225.924C820.637 225.215 821.514 224.86 822.569 224.86C823.614 224.86 824.482 225.215 825.173 225.924C825.873 226.624 826.223 227.483 826.223 228.5C826.223 229.517 825.873 230.381 825.173 231.09C824.482 231.79 823.614 232.14 822.569 232.14ZM820.805 230.292C821.262 230.777 821.85 231.02 822.569 231.02C823.288 231.02 823.871 230.777 824.319 230.292C824.767 229.807 824.991 229.209 824.991 228.5C824.991 227.791 824.767 227.193 824.319 226.708C823.871 226.223 823.288 225.98 822.569 225.98C821.85 225.98 821.262 226.223 820.805 226.708C820.357 227.193 820.133 227.791 820.133 228.5C820.133 229.209 820.357 229.807 820.805 230.292ZM830.544 232.07C829.9 232.07 829.382 231.888 828.99 231.524C828.598 231.16 828.402 230.628 828.402 229.928V226.106H826.918V225H828.402V223.054H829.606V225H831.622V226.106H829.606V229.774C829.606 230.213 829.7 230.521 829.886 230.698C830.073 230.875 830.367 230.964 830.768 230.964C831.123 230.964 831.408 230.917 831.622 230.824V231.902C831.286 232.014 830.927 232.07 830.544 232.07ZM840.205 232.14C839.692 232.14 839.211 232.028 838.763 231.804C838.325 231.571 837.984 231.277 837.741 230.922V232H836.537V221.5H837.741V226.078C837.984 225.723 838.325 225.434 838.763 225.21C839.211 224.977 839.692 224.86 840.205 224.86C841.176 224.86 841.988 225.215 842.641 225.924C843.304 226.633 843.635 227.492 843.635 228.5C843.635 229.508 843.304 230.367 842.641 231.076C841.988 231.785 841.176 232.14 840.205 232.14ZM838.315 230.306C838.763 230.791 839.333 231.034 840.023 231.034C840.714 231.034 841.283 230.791 841.731 230.306C842.179 229.821 842.403 229.219 842.403 228.5C842.403 227.781 842.179 227.179 841.731 226.694C841.283 226.209 840.714 225.966 840.023 225.966C839.333 225.966 838.763 226.209 838.315 226.694C837.867 227.179 837.643 227.781 837.643 228.5C837.643 229.219 837.867 229.821 838.315 230.306ZM848.338 232.14C847.32 232.14 846.476 231.795 845.804 231.104C845.141 230.413 844.81 229.545 844.81 228.5C844.81 227.445 845.132 226.577 845.776 225.896C846.429 225.205 847.292 224.86 848.366 224.86C849.448 224.86 850.298 225.243 850.914 226.008C851.53 226.773 851.8 227.711 851.726 228.822H846.028C846.046 229.457 846.28 229.989 846.728 230.418C847.176 230.838 847.717 231.048 848.352 231.048C849.304 231.048 849.98 230.656 850.382 229.872H851.614C851.436 230.525 851.058 231.067 850.48 231.496C849.901 231.925 849.187 232.14 848.338 232.14ZM849.71 226.428C849.327 226.092 848.865 225.924 848.324 225.924C847.782 225.924 847.297 226.087 846.868 226.414C846.448 226.741 846.186 227.226 846.084 227.87H850.452C850.34 227.235 850.092 226.755 849.71 226.428ZM857.25 232V226.106H855.766V225H857.25V223.586C857.25 222.886 857.446 222.349 857.838 221.976C858.23 221.603 858.748 221.416 859.392 221.416C859.775 221.416 860.139 221.477 860.484 221.598V222.662C860.27 222.569 859.98 222.522 859.616 222.522C859.215 222.522 858.921 222.611 858.734 222.788C858.548 222.965 858.454 223.273 858.454 223.712V225H860.484V226.106H858.454V232H857.25ZM864.733 232.14C863.679 232.14 862.801 231.79 862.101 231.09C861.411 230.381 861.065 229.517 861.065 228.5C861.065 227.483 861.411 226.624 862.101 225.924C862.801 225.215 863.679 224.86 864.733 224.86C865.779 224.86 866.647 225.215 867.337 225.924C868.037 226.624 868.387 227.483 868.387 228.5C868.387 229.517 868.037 230.381 867.337 231.09C866.647 231.79 865.779 232.14 864.733 232.14ZM862.969 230.292C863.427 230.777 864.015 231.02 864.733 231.02C865.452 231.02 866.035 230.777 866.483 230.292C866.931 229.807 867.155 229.209 867.155 228.5C867.155 227.791 866.931 227.193 866.483 226.708C866.035 226.223 865.452 225.98 864.733 225.98C864.015 225.98 863.427 226.223 862.969 226.708C862.521 227.193 862.297 227.791 862.297 228.5C862.297 229.209 862.521 229.807 862.969 230.292ZM872.593 232.14C871.828 232.14 871.207 231.883 870.731 231.37C870.255 230.847 870.017 230.157 870.017 229.298V225H871.221V229.116C871.221 229.704 871.361 230.171 871.641 230.516C871.931 230.861 872.318 231.034 872.803 231.034C873.363 231.034 873.825 230.805 874.189 230.348C874.563 229.881 874.749 229.256 874.749 228.472V225H875.953V232H874.749V230.922C874.292 231.734 873.573 232.14 872.593 232.14ZM878.223 232V225H879.427V226.078C879.903 225.266 880.645 224.86 881.653 224.86C882.446 224.86 883.086 225.117 883.571 225.63C884.056 226.143 884.299 226.829 884.299 227.688V232H883.109V227.87C883.109 227.282 882.96 226.82 882.661 226.484C882.362 226.139 881.961 225.966 881.457 225.966C880.878 225.966 880.393 226.195 880.001 226.652C879.618 227.109 879.427 227.735 879.427 228.528V232H878.223ZM889.351 232.14C888.38 232.14 887.564 231.785 886.901 231.076C886.248 230.367 885.921 229.508 885.921 228.5C885.921 227.492 886.248 226.633 886.901 225.924C887.564 225.215 888.38 224.86 889.351 224.86C889.864 224.86 890.34 224.977 890.779 225.21C891.227 225.434 891.572 225.723 891.815 226.078V221.5H893.019V232H891.815V230.922C891.572 231.277 891.227 231.571 890.779 231.804C890.34 232.028 889.864 232.14 889.351 232.14ZM889.533 231.034C890.224 231.034 890.793 230.791 891.241 230.306C891.689 229.821 891.913 229.219 891.913 228.5C891.913 227.781 891.689 227.179 891.241 226.694C890.793 226.209 890.224 225.966 889.533 225.966C888.833 225.966 888.259 226.209 887.811 226.694C887.363 227.179 887.139 227.781 887.139 228.5C887.139 229.219 887.363 229.821 887.811 230.306C888.259 230.791 888.833 231.034 889.533 231.034ZM901.77 232.14C900.716 232.14 899.838 231.79 899.138 231.09C898.448 230.381 898.102 229.517 898.102 228.5C898.102 227.483 898.448 226.624 899.138 225.924C899.838 225.215 900.716 224.86 901.77 224.86C902.816 224.86 903.684 225.215 904.374 225.924C905.074 226.624 905.424 227.483 905.424 228.5C905.424 229.517 905.074 230.381 904.374 231.09C903.684 231.79 902.816 232.14 901.77 232.14ZM900.006 230.292C900.464 230.777 901.052 231.02 901.77 231.02C902.489 231.02 903.072 230.777 903.52 230.292C903.968 229.807 904.192 229.209 904.192 228.5C904.192 227.791 903.968 227.193 903.52 226.708C903.072 226.223 902.489 225.98 901.77 225.98C901.052 225.98 900.464 226.223 900.006 226.708C899.558 227.193 899.334 227.791 899.334 228.5C899.334 229.209 899.558 229.807 900.006 230.292ZM907.153 232V225H908.357V226.078C908.833 225.266 909.575 224.86 910.583 224.86C911.376 224.86 912.015 225.117 912.501 225.63C912.986 226.143 913.229 226.829 913.229 227.688V232H912.039V227.87C912.039 227.282 911.889 226.82 911.591 226.484C911.292 226.139 910.891 225.966 910.387 225.966C909.808 225.966 909.323 226.195 908.931 226.652C908.548 227.109 908.357 227.735 908.357 228.528V232H907.153ZM921.257 232.07C920.613 232.07 920.095 231.888 919.703 231.524C919.311 231.16 919.115 230.628 919.115 229.928V226.106H917.631V225H919.115V223.054H920.319V225H922.335V226.106H920.319V229.774C920.319 230.213 920.413 230.521 920.599 230.698C920.786 230.875 921.08 230.964 921.481 230.964C921.836 230.964 922.121 230.917 922.335 230.824V231.902C921.999 232.014 921.64 232.07 921.257 232.07ZM925.077 232H923.873V221.5H925.077V226.078C925.553 225.266 926.295 224.86 927.303 224.86C928.097 224.86 928.736 225.117 929.221 225.63C929.707 226.143 929.949 226.829 929.949 227.688V232H928.759V227.87C928.759 227.282 928.61 226.82 928.311 226.484C928.013 226.139 927.611 225.966 927.107 225.966C926.529 225.966 926.043 226.195 925.651 226.652C925.269 227.109 925.077 227.735 925.077 228.528V232ZM933.335 222.886C933.177 223.045 932.976 223.124 932.733 223.124C932.491 223.124 932.285 223.045 932.117 222.886C931.949 222.718 931.865 222.513 931.865 222.27C931.865 222.037 931.949 221.836 932.117 221.668C932.285 221.5 932.491 221.416 932.733 221.416C932.976 221.416 933.177 221.5 933.335 221.668C933.494 221.836 933.573 222.037 933.573 222.27C933.573 222.513 933.494 222.718 933.335 222.886ZM932.117 232V225H933.321V232H932.117ZM937.858 232.14C937.074 232.14 936.416 231.949 935.884 231.566C935.361 231.183 935.072 230.651 935.016 229.97H936.248C936.322 230.362 936.509 230.651 936.808 230.838C937.116 231.025 937.47 231.118 937.872 231.118C938.273 231.118 938.595 231.039 938.838 230.88C939.09 230.721 939.216 230.493 939.216 230.194C939.216 229.914 939.122 229.685 938.936 229.508C938.758 229.331 938.464 229.186 938.054 229.074L937.046 228.808C935.842 228.491 935.24 227.805 935.24 226.75C935.24 226.181 935.464 225.723 935.912 225.378C936.369 225.033 936.952 224.86 937.662 224.86C938.38 224.86 938.968 225.051 939.426 225.434C939.892 225.807 940.154 226.283 940.21 226.862H939.006C938.912 226.554 938.744 226.311 938.502 226.134C938.268 225.957 937.988 225.868 937.662 225.868C937.316 225.868 937.027 225.947 936.794 226.106C936.57 226.265 936.458 226.475 936.458 226.736C936.458 226.988 936.542 227.193 936.71 227.352C936.878 227.511 937.148 227.641 937.522 227.744L938.642 228.038C939.836 228.337 940.434 229.027 940.434 230.11C940.434 230.782 940.196 231.291 939.72 231.636C939.244 231.972 938.623 232.14 937.858 232.14ZM947.77 232.14C946.986 232.14 946.328 231.949 945.796 231.566C945.273 231.183 944.984 230.651 944.928 229.97H946.16C946.235 230.362 946.421 230.651 946.72 230.838C947.028 231.025 947.383 231.118 947.784 231.118C948.185 231.118 948.507 231.039 948.75 230.88C949.002 230.721 949.128 230.493 949.128 230.194C949.128 229.914 949.035 229.685 948.848 229.508C948.671 229.331 948.377 229.186 947.966 229.074L946.958 228.808C945.754 228.491 945.152 227.805 945.152 226.75C945.152 226.181 945.376 225.723 945.824 225.378C946.281 225.033 946.865 224.86 947.574 224.86C948.293 224.86 948.881 225.051 949.338 225.434C949.805 225.807 950.066 226.283 950.122 226.862H948.918C948.825 226.554 948.657 226.311 948.414 226.134C948.181 225.957 947.901 225.868 947.574 225.868C947.229 225.868 946.939 225.947 946.706 226.106C946.482 226.265 946.37 226.475 946.37 226.736C946.37 226.988 946.454 227.193 946.622 227.352C946.79 227.511 947.061 227.641 947.434 227.744L948.554 228.038C949.749 228.337 950.346 229.027 950.346 230.11C950.346 230.782 950.108 231.291 949.632 231.636C949.156 231.972 948.535 232.14 947.77 232.14ZM955.033 232.14C954.016 232.14 953.171 231.795 952.499 231.104C951.836 230.413 951.505 229.545 951.505 228.5C951.505 227.445 951.827 226.577 952.471 225.896C953.124 225.205 953.988 224.86 955.061 224.86C956.144 224.86 956.993 225.243 957.609 226.008C958.225 226.773 958.496 227.711 958.421 228.822H952.723C952.742 229.457 952.975 229.989 953.423 230.418C953.871 230.838 954.412 231.048 955.047 231.048C955.999 231.048 956.676 230.656 957.077 229.872H958.309C958.132 230.525 957.754 231.067 957.175 231.496C956.596 231.925 955.882 232.14 955.033 232.14ZM956.405 226.428C956.022 226.092 955.56 225.924 955.019 225.924C954.478 225.924 953.992 226.087 953.563 226.414C953.143 226.741 952.882 227.226 952.779 227.87H957.147C957.035 227.235 956.788 226.755 956.405 226.428ZM960.158 232V225H961.362V226.358C961.493 225.929 961.745 225.583 962.118 225.322C962.501 225.061 962.902 224.93 963.322 224.93C963.528 224.93 963.71 224.949 963.868 224.986V226.232C963.7 226.157 963.481 226.12 963.21 226.12C962.725 226.12 962.296 226.33 961.922 226.75C961.549 227.17 961.362 227.763 961.362 228.528V232H960.158ZM967.469 232L964.235 225H965.579L967.973 230.306L970.367 225H971.711L968.477 232H967.469ZM975.76 232.14C974.742 232.14 973.898 231.795 973.226 231.104C972.563 230.413 972.232 229.545 972.232 228.5C972.232 227.445 972.554 226.577 973.198 225.896C973.851 225.205 974.714 224.86 975.788 224.86C976.87 224.86 977.72 225.243 978.336 226.008C978.952 226.773 979.222 227.711 979.148 228.822H973.45C973.468 229.457 973.702 229.989 974.15 230.418C974.598 230.838 975.139 231.048 975.774 231.048C976.726 231.048 977.402 230.656 977.804 229.872H979.036C978.858 230.525 978.48 231.067 977.902 231.496C977.323 231.925 976.609 232.14 975.76 232.14ZM977.132 226.428C976.749 226.092 976.287 225.924 975.746 225.924C975.204 225.924 974.719 226.087 974.29 226.414C973.87 226.741 973.608 227.226 973.506 227.87H977.874C977.762 227.235 977.514 226.755 977.132 226.428ZM980.885 232V225H982.089V226.358C982.22 225.929 982.472 225.583 982.845 225.322C983.228 225.061 983.629 224.93 984.049 224.93C984.254 224.93 984.436 224.949 984.595 224.986V226.232C984.427 226.157 984.208 226.12 983.937 226.12C983.452 226.12 983.022 226.33 982.649 226.75C982.276 227.17 982.089 227.763 982.089 228.528V232H980.885ZM986.404 228.892L986.166 226.036V222.06H987.384V226.036L987.146 228.892H986.404ZM987.496 231.804C987.3 232.009 987.057 232.112 986.768 232.112C986.479 232.112 986.231 232.009 986.026 231.804C985.83 231.599 985.732 231.351 985.732 231.062C985.732 230.782 985.835 230.539 986.04 230.334C986.245 230.119 986.488 230.012 986.768 230.012C987.048 230.012 987.291 230.119 987.496 230.334C987.701 230.539 987.804 230.782 987.804 231.062C987.804 231.351 987.701 231.599 987.496 231.804Z"
        fill="white" />
</svg>
    