<svg width="147" height="26" viewBox="0 0 147 26" fill="none" xmlns="http://www.w3.org/2000/svg">
    <path fill-rule="evenodd" clip-rule="evenodd"
        d="M13 0C16.5898 0 19.8398 1.45507 22.1924 3.80761C24.5449 6.16015 26 9.41015 26 13C26 16.5899 24.5449 19.8399 22.1924 22.1924C19.8398 24.5449 16.5898 26 13 26C9.41015 26 6.16015 24.5449 3.80761 22.1924C1.45507 19.8399 0 16.5899 0 13C0 9.41015 1.45507 6.16015 3.80761 3.80761C6.16015 1.45507 9.41015 0 13 0ZM9.17918 22.1757L9.08519 22.2182C8.43303 22.5106 7.76233 22.769 7.07536 22.9911L7.16974 23.0464C8.74568 23.9636 10.5578 24.52 12.4926 24.6032L12.6085 24.6078L12.5232 24.5109C12.0473 23.9677 11.6004 23.3985 11.1617 22.7968C11.0134 22.8307 10.859 22.8487 10.7004 22.8487C10.1328 22.8487 9.61884 22.6186 9.24683 22.2466C9.22709 22.2269 9.20775 22.2067 9.17918 22.1757ZM16.8999 15.9686L16.8553 16.0284C15.6692 17.5959 14.2568 18.9829 12.6587 20.1655C12.7219 20.3635 12.7561 20.5743 12.7561 20.793C12.7561 21.2543 12.6042 21.68 12.3473 22.049C12.9691 22.9317 13.6661 23.7577 14.4471 24.5242C18.3309 24.0424 21.6198 21.6418 23.3281 18.2717C21.3836 17.1315 19.2129 16.3365 16.8999 15.9686ZM5.99933 17.5234L5.92564 17.5585C4.9645 18.0202 4.04889 18.5623 3.18197 19.206C3.84238 20.2497 4.66523 21.1808 5.63434 21.9682C6.67236 21.6975 7.67482 21.3389 8.64647 20.8802C8.64535 20.8512 8.64474 20.8222 8.64474 20.793L8.64492 20.7659C8.65185 20.2271 8.86621 19.7381 9.21183 19.3753L9.24113 19.345L9.20537 19.2628C9.15945 19.1564 9.11441 19.0495 9.04707 18.9285C8.91902 18.9441 8.78862 18.9522 8.65634 18.9522C7.77705 18.9522 6.98101 18.5958 6.40479 18.0196C6.25607 17.8709 6.12201 17.7075 5.99933 17.5234ZM10.7004 20.1233C10.5155 20.1233 10.348 20.1982 10.2268 20.3195C10.1056 20.4407 10.0306 20.6081 10.0306 20.793C10.0306 20.978 10.1056 21.1454 10.2268 21.2666C10.348 21.3878 10.5155 21.4628 10.7004 21.4628C10.8854 21.4628 11.0528 21.3878 11.174 21.2666C11.2952 21.1454 11.3702 20.978 11.3702 20.793C11.3702 20.6081 11.2952 20.4407 11.174 20.3195C11.0528 20.1982 10.8854 20.1233 10.7004 20.1233ZM13.9582 15.737L13.8612 15.7373C13.214 15.7406 12.5748 15.777 11.945 15.8448L11.8388 15.8723C11.8119 16.7101 11.4612 17.4662 10.9079 18.0196C10.7489 18.1785 10.5732 18.3207 10.3752 18.4705C10.4116 18.5583 10.4486 18.6458 10.5087 18.7462C10.5719 18.7404 10.6358 18.7374 10.7004 18.7374C11.0999 18.7374 11.4727 18.8513 11.813 19.0476C13.0931 18.1207 14.2503 17.0342 15.2554 15.8171C15.2645 15.806 15.2736 15.7949 15.2827 15.7838C15.2685 15.7828 15.2541 15.7818 15.2398 15.7808C14.8163 15.7517 14.389 15.737 13.9582 15.737ZM6.72167 8.9617L6.63703 9.01522C4.71136 10.2355 2.95122 11.694 1.39227 13.3652C1.44208 14.9984 1.82947 16.5464 2.48679 17.9422C2.49052 17.9501 2.49426 17.9581 2.49801 17.966C2.50521 17.961 2.5124 17.956 2.51958 17.9509C3.45428 17.2966 4.44744 16.7202 5.5023 16.2081C5.48245 16.0642 5.47216 15.9173 5.47216 15.768C5.47216 14.8887 5.82857 14.0927 6.40479 13.5165C6.74125 13.18 7.1527 12.9186 7.62672 12.7367C7.59586 12.282 7.58012 11.8231 7.58012 11.3605C7.58012 10.7898 7.60408 10.2246 7.6381 9.64399C7.34342 9.5102 7.07722 9.32457 6.8513 9.09865C6.81096 9.05831 6.77193 9.01664 6.72167 8.9617ZM8.65634 13.9698C8.15976 13.9698 7.71019 14.171 7.38477 14.4965C7.05935 14.8219 6.85807 15.2714 6.85807 15.768C6.85807 16.2646 7.05935 16.7142 7.38477 17.0396C7.71019 17.365 8.15976 17.5663 8.65634 17.5663C9.15291 17.5663 9.60248 17.365 9.9279 17.0396C10.2533 16.7142 10.4546 16.2646 10.4546 15.768C10.4546 15.2714 10.2533 14.8219 9.9279 14.4965C9.60248 14.171 9.15291 13.9698 8.65634 13.9698ZM24.1718 9.81394L24.0941 9.83015C23.2854 9.99654 22.462 10.1227 21.6069 10.2226C21.4903 10.6377 21.2686 11.0089 20.9721 11.3053L20.9529 11.3243C20.5119 11.7559 19.9105 12.0244 19.2463 12.032L19.2048 12.0322L19.1849 12.0776C18.7805 12.9896 18.3097 13.8659 17.7693 14.7145L17.8718 14.7347C20.0194 15.1616 22.043 15.933 23.8824 16.989C23.8899 16.9933 23.8975 16.9976 23.905 17.0019C23.9083 16.9938 23.9113 16.9856 23.9143 16.9773C24.3674 15.7371 24.6141 14.3973 24.6141 13V12.936C24.6083 11.8855 24.4632 10.868 24.1962 9.90117L24.1718 9.81394ZM8.65634 14.9119C8.89276 14.9119 9.1068 15.0077 9.26173 15.1626C9.41667 15.3176 9.51249 15.5316 9.51249 15.768C9.51249 16.0044 9.41667 16.2185 9.26173 16.3734C9.1068 16.5284 8.89276 16.6242 8.65634 16.6242C8.41991 16.6242 8.20587 16.5284 8.05094 16.3734C7.89601 16.2185 7.80018 16.0044 7.80018 15.768C7.80018 15.5316 7.89601 15.3176 8.05094 15.1626C8.20587 15.0077 8.41991 14.9119 8.65634 14.9119ZM10.8382 8.86682C10.7738 8.94806 10.7049 9.02547 10.6317 9.09865C10.2149 9.51549 9.66101 9.79527 9.02387 9.88502C8.98551 10.3718 8.96602 10.8638 8.96602 11.3605C8.96602 11.7717 8.97938 12.1798 9.02528 12.6049C9.75706 12.6895 10.4134 13.022 10.9079 13.5165C11.1829 13.7915 11.4079 14.1167 11.5907 14.4901C12.367 14.3983 13.1571 14.3511 13.9582 14.3511C14.7323 14.3511 15.4961 14.3952 16.2682 14.472C16.8765 13.5837 17.4094 12.6398 17.8499 11.6219C17.7104 11.5293 17.5806 11.4232 17.4627 11.3053C17.1683 11.011 16.9477 10.6429 16.8113 10.2153C14.7719 10.0182 12.806 9.56887 10.9455 8.89886L10.8382 8.86682ZM4.33382 5.26773L4.30142 5.30421C2.86347 6.92824 1.87324 8.95807 1.52447 11.2002C1.52117 11.2214 1.51794 11.2426 1.51476 11.2638C1.53034 11.2494 1.54599 11.2346 1.56165 11.2197C2.949 9.90545 4.46983 8.72936 6.11171 7.69207C6.08334 7.53507 6.06835 7.37351 6.06835 7.20845C6.06835 6.98496 6.09582 6.76788 6.13791 6.53632C5.54519 6.15849 4.96993 5.75561 4.41365 5.3292L4.33382 5.26773ZM19.2174 8.45501C18.9149 8.45501 18.641 8.57764 18.4427 8.7759C18.2444 8.97417 18.1218 9.24807 18.1218 9.55062C18.1218 9.85317 18.2444 10.1271 18.4427 10.3253C18.641 10.5236 18.9149 10.6462 19.2174 10.6462C19.5199 10.6462 19.7938 10.5236 19.9921 10.3253C20.1904 10.1271 20.313 9.85317 20.313 9.55062C20.313 9.24807 20.1904 8.97417 19.9921 8.7759C19.7938 8.57764 19.5199 8.45501 19.2174 8.45501ZM21.006 4.85658L20.8715 4.85686C20.8338 5.74267 20.7383 6.61374 20.5982 7.48846C20.7327 7.57871 20.858 7.68177 20.9721 7.79592C21.2538 8.07764 21.468 8.42682 21.5886 8.81708L21.7144 8.80352C22.3607 8.73232 22.9989 8.63414 23.6279 8.51019L23.7072 8.49438L23.6875 8.44772C23.1167 7.108 22.3008 5.89763 21.2821 4.85794L21.1347 4.85688C21.0918 4.85668 21.0489 4.85658 21.006 4.85658ZM19.4821 4.89899L19.4137 4.90294C16.5946 5.06759 13.8921 5.66666 11.3586 6.65946C11.3952 6.83682 11.4147 7.02036 11.4147 7.20845C11.4147 7.33008 11.4065 7.44981 11.4052 7.59095C13.1252 8.21152 14.9413 8.63181 16.8485 8.80836C16.9699 8.42164 17.1831 8.07556 17.4627 7.79592C17.9118 7.34682 18.5322 7.0691 19.2535 7.05058C19.3664 6.36892 19.4422 5.67469 19.4787 4.97006L19.4821 4.89899ZM8.74151 5.9212C8.38604 5.9212 8.06423 6.06528 7.83128 6.29823C7.59834 6.53117 7.45426 6.85298 7.45426 7.20845C7.45426 7.56391 7.59834 7.88572 7.83128 8.11867C8.06423 8.35161 8.38604 8.4957 8.74151 8.4957C9.09697 8.4957 9.41878 8.35161 9.65173 8.11867C9.88467 7.88572 10.0288 7.56391 10.0288 7.20845C10.0288 6.85298 9.88467 6.53117 9.65173 6.29823C9.41878 6.06528 9.09697 5.9212 8.74151 5.9212ZM13 1.38591C12.6093 1.38591 12.2231 1.40519 11.8257 1.45309C11.1445 2.53117 10.5713 3.68427 10.1304 4.9238C10.313 5.03528 10.4813 5.16783 10.6317 5.31824L10.6627 5.34977C10.6744 5.36186 10.6862 5.37424 10.7129 5.40313L10.7503 5.38857C13.474 4.32784 16.4028 3.67687 19.4976 3.50262L19.4936 3.37009C17.6405 2.11722 15.4057 1.38591 13 1.38591ZM10.0317 1.76843L9.95478 1.78908C8.23299 2.25538 6.66854 3.10706 5.3525 4.2389L5.31361 4.2725L5.40121 4.33884C5.86051 4.68506 6.33404 5.01393 6.8513 5.31824C7.33509 4.83446 8.00345 4.5353 8.78273 4.52079C9.11693 3.60435 9.51671 2.71865 9.98125 1.86113L10.0317 1.76843ZM60.2042 10.338C60.8996 10.338 61.5381 10.4898 62.1198 10.7934C62.7244 11.1091 63.1993 11.5272 63.5442 12.0481V10.5288H65.1396V19.4548C65.1396 20.9738 64.7009 22.1452 63.8214 22.9682C62.9419 23.7913 61.8251 24.2024 60.4711 24.2024C59.2181 24.2024 58.1768 23.8957 57.3477 23.2814C56.5274 22.6737 56.039 21.8953 55.8827 20.946H57.4426C57.6548 21.5608 58.0155 22.0223 58.5242 22.3308C59.0357 22.6411 59.6972 22.7967 60.5093 22.7967C61.4186 22.7967 62.1515 22.5048 62.7086 21.9218C63.265 21.3394 63.5442 20.5237 63.5442 19.4738V18.2743C63.1993 18.8089 62.7244 19.2339 62.1198 19.5496C61.5381 19.8532 60.8996 20.005 60.2042 20.005C58.8759 20.005 57.7689 19.5399 56.8834 18.6095C55.9975 17.6788 55.5547 16.5295 55.5547 15.162C55.5547 13.8071 56.0007 12.6642 56.8928 11.7335C57.7847 10.8031 58.8885 10.338 60.2042 10.338ZM60.433 11.8009C59.4857 11.8009 58.7082 12.1182 58.1002 12.7522C57.4925 13.3858 57.1883 14.189 57.1883 15.162C57.1883 16.1348 57.4893 16.9411 58.0905 17.5811C58.6923 18.2088 59.4729 18.523 60.433 18.523C61.3931 18.523 62.1738 18.2056 62.7754 17.5717C63.3766 16.938 63.6776 16.1349 63.6776 15.162C63.6776 14.189 63.3734 13.3858 62.7657 12.7522C62.1578 12.1182 61.3803 11.8009 60.433 11.8009ZM73.2466 10.338C74.5622 10.338 75.6659 10.819 76.5577 11.7809C77.45 12.7435 77.896 13.9087 77.896 15.2764C77.896 16.6442 77.45 17.8094 76.5577 18.7719C75.6659 19.7339 74.5622 20.2148 73.2466 20.2148C72.5511 20.2148 71.903 20.0599 71.3023 19.7499C70.677 19.4271 70.1989 19.0119 69.8685 18.5039V24.0116H68.273V10.5288H69.8685V12.049C70.1989 11.5409 70.677 11.1257 71.3023 10.803C71.903 10.493 72.5511 10.338 73.2466 10.338ZM72.9987 11.8009C72.0514 11.8009 71.2706 12.1341 70.6561 12.8002C70.0422 13.4656 69.735 14.291 69.735 15.2764C69.735 16.2619 70.0422 17.0872 70.6561 17.7527C71.2706 18.4187 72.0514 18.7519 72.9987 18.7519C73.946 18.7519 74.7269 18.4187 75.3413 17.7527C75.9552 17.0872 76.2624 16.2619 76.2624 15.2764C76.2624 14.291 75.9552 13.4656 75.3413 12.8002C74.7269 12.1341 73.946 11.8009 72.9987 11.8009ZM138.009 4.34812C140.404 4.34812 142.572 5.319 144.142 6.8887C145.712 8.45839 146.683 10.6269 146.683 13.0222C146.683 15.4175 145.712 17.586 144.142 19.1557C142.572 20.7254 140.404 21.6962 138.009 21.6962H116.623C114.228 21.6962 112.059 20.7254 110.489 19.1557C108.92 17.586 107.949 15.4175 107.949 13.0222C107.949 10.6269 108.92 8.45839 110.489 6.8887C112.059 5.319 114.228 4.34812 116.623 4.34812H138.009ZM122.555 9.71124C121.591 9.71124 120.793 10.0336 120.162 10.6777C119.531 11.3218 119.215 12.1087 119.215 13.0386C119.215 13.9685 119.531 14.7555 120.162 15.3996C120.793 16.0437 121.591 16.366 122.555 16.366C123.357 16.366 124.048 16.1461 124.628 15.7068C125.216 15.2616 125.602 14.6784 125.787 13.9572H124.573C124.423 14.3748 124.17 14.7067 123.814 14.9527C123.461 15.196 123.042 15.3174 122.555 15.3174C121.909 15.3174 121.383 15.0996 120.976 14.6634C120.569 14.2268 120.365 13.6851 120.365 13.0386C120.365 12.3922 120.569 11.8505 120.976 11.4139C121.383 10.9777 121.909 10.7599 122.555 10.7599C123.042 10.7599 123.461 10.8813 123.814 11.1246C124.17 11.3706 124.423 11.7025 124.573 12.1201H125.788C125.594 11.3989 125.203 10.8157 124.615 10.3704C124.035 9.93111 123.348 9.71124 122.555 9.71124ZM129.826 9.71124C128.939 9.71124 128.194 10.0357 127.592 10.6845C126.991 11.3327 126.69 12.1174 126.69 13.0386C126.69 13.9599 126.991 14.7445 127.592 15.3928C128.194 16.0416 128.939 16.366 129.826 16.366C130.296 16.366 130.734 16.2614 131.14 16.0521C131.522 15.855 131.822 15.6068 132.042 15.3076V16.2389H133.179V9.83836H132.042V10.7697C131.822 10.4705 131.522 10.2222 131.14 10.0252C130.734 9.8159 130.296 9.71124 129.826 9.71124ZM115.653 9.67236C115.004 9.67236 114.472 9.83102 114.057 10.1473C113.64 10.4653 113.432 10.8864 113.432 11.4107C113.432 11.8956 113.571 12.2955 113.848 12.6108C114.123 12.9251 114.537 13.1555 115.088 13.3009L116.004 13.5424C116.372 13.6428 116.638 13.7719 116.801 13.9309C116.962 14.0878 117.042 14.2903 117.042 14.5379C117.042 14.801 116.934 15.0024 116.716 15.1422C116.494 15.2843 116.204 15.3548 115.844 15.3548C115.484 15.3548 115.168 15.2713 114.896 15.1038C114.621 14.9347 114.452 14.6706 114.388 14.3124H113.227C113.273 14.9495 113.542 15.4459 114.032 15.8017C114.515 16.1517 115.114 16.3272 115.831 16.3272C116.532 16.3272 117.1 16.1707 117.535 15.859C117.973 15.5456 118.193 15.0801 118.193 14.4617C118.193 13.9641 118.055 13.5568 117.781 13.2395C117.507 12.9229 117.096 12.6956 116.549 12.5587L115.532 12.2918C115.198 12.1999 114.955 12.0834 114.804 11.9412C114.656 11.8013 114.582 11.6201 114.582 11.398C114.582 11.1681 114.683 10.9836 114.884 10.8442C115.089 10.7024 115.345 10.632 115.653 10.632C115.945 10.632 116.197 10.7109 116.409 10.8692C116.626 11.0304 116.775 11.2523 116.857 11.5346H117.991C117.945 10.9922 117.706 10.5447 117.276 10.1922C116.852 9.84599 116.312 9.67236 115.653 9.67236ZM138.32 9.67236C137.424 9.67236 136.758 10.0222 136.321 10.7211V9.79948H135.183V16.2H136.321V13.0252C136.321 12.3111 136.494 11.7478 136.843 11.3361C137.19 10.9261 137.623 10.721 138.142 10.721C138.592 10.721 138.951 10.8728 139.218 11.1774C139.486 11.4832 139.62 11.9002 139.62 12.4277V16.2H140.744V12.2624C140.744 11.4762 140.522 10.8484 140.077 10.3785C139.633 9.90804 139.047 9.67236 138.32 9.67236ZM129.992 10.7599C130.612 10.7599 131.124 10.9777 131.526 11.4138C131.929 11.8504 132.131 12.3921 132.131 13.0386C132.131 13.6851 131.929 14.2268 131.526 14.6635C131.124 15.0995 130.612 15.3174 129.992 15.3174C129.363 15.3174 128.847 15.0996 128.444 14.6635C128.041 14.2268 127.84 13.6851 127.84 13.0386C127.84 12.3921 128.041 11.8504 128.444 11.4138C128.847 10.9777 129.363 10.7599 129.992 10.7599ZM84.5157 10.338C85.9331 10.338 87.1132 10.8158 88.0561 11.7719C88.9989 12.728 89.4702 13.8962 89.4702 15.2764C89.4702 16.6567 88.9989 17.8249 88.0561 18.781C87.1132 19.737 85.9331 20.2148 84.5157 20.2148C83.0857 20.2148 81.8991 19.737 80.9563 18.781C80.0134 17.8249 79.5421 16.6567 79.5421 15.2764C79.5421 13.8962 80.0134 12.728 80.9563 11.7719C81.8991 10.8158 83.0857 10.338 84.5157 10.338ZM84.5157 11.82C83.5302 11.82 82.7272 12.1533 82.1065 12.8192C81.4861 13.4847 81.1757 14.3037 81.1757 15.2764C81.1757 16.2491 81.4829 17.0681 82.0968 17.7336C82.7241 18.3996 83.5302 18.7329 84.5157 18.7329C85.5013 18.7329 86.3011 18.3995 86.9155 17.7336C87.5294 17.0681 87.8366 16.2491 87.8366 15.2764C87.8366 14.3037 87.5294 13.4847 86.9155 12.8192C86.3011 12.1533 85.5013 11.82 84.5157 11.82ZM50.1745 10.338C51.1475 10.338 51.9469 10.5936 52.5725 11.1057C53.1904 11.6116 53.5398 12.2503 53.6203 13.022H52.0214C51.892 12.6048 51.6652 12.2757 51.3413 12.0343C51.0135 11.7898 50.6246 11.6674 50.1745 11.6674C49.699 11.6674 49.304 11.7771 48.9892 11.9957C48.6711 12.2165 48.5125 12.5089 48.5125 12.8724C48.5125 13.2226 48.6294 13.5077 48.8626 13.7281C49.0934 13.9461 49.4649 14.1264 49.9782 14.2676L51.5038 14.6683C52.3121 14.8705 52.9187 15.2049 53.323 15.6725C53.7265 16.1394 53.9277 16.7388 53.9277 17.4705C53.9277 18.3781 53.6072 19.0624 52.9645 19.5226C52.3195 19.9845 51.4783 20.2148 50.4414 20.2148C49.3789 20.2148 48.4902 19.9558 47.7754 19.4368C47.0687 18.9237 46.6753 18.212 46.5948 17.3019H48.2303C48.3357 17.8338 48.5956 18.2268 49.0092 18.4815C49.4257 18.738 49.9094 18.8664 50.4605 18.8664C51.0122 18.8664 51.4578 18.7567 51.7977 18.5386C52.1413 18.318 52.3132 18.0002 52.3132 17.585C52.3132 17.1968 52.1868 16.88 51.9347 16.6342C51.6848 16.3906 51.2782 16.1912 50.714 16.0372L49.3411 15.6747C48.5263 15.4598 47.9148 15.1206 47.5074 14.656C47.1008 14.1924 46.8979 13.6041 46.8979 12.8915C46.8979 12.123 47.2033 11.5056 47.814 11.0394C48.427 10.5715 49.214 10.338 50.1745 10.338ZM101.216 7.87681V10.5288H103.962V11.9917H101.216V17.0126C101.216 17.6188 101.347 18.0432 101.604 18.2879C101.862 18.5327 102.267 18.6565 102.821 18.6565C103.291 18.6565 103.671 18.5965 103.962 18.477V19.8967C103.511 20.0452 103.029 20.1194 102.516 20.1194C101.645 20.1194 100.944 19.8738 100.414 19.3813C99.8844 18.8889 99.6206 18.169 99.6206 17.2225V11.9917H97.5994V10.5288H99.6206V7.87681H101.216ZM96.1471 10.4334C96.4175 10.4334 96.658 10.4573 96.8686 10.5052V12.1519C96.6417 12.0581 96.3504 12.0108 95.9946 12.0108C95.3275 12.0108 94.737 12.299 94.2237 12.8768C93.7122 13.4527 93.4554 14.265 93.4554 15.3146V20.024H91.86V10.5288H93.4554V12.5224C93.6151 11.8681 93.9731 11.3485 94.5294 10.9637C95.0403 10.6103 95.5795 10.4334 96.1471 10.4334ZM32.3349 6.52218L37.3608 13.2912L42.425 6.52218H43.9934V20.024H42.2835V9.44751L37.3799 16.0406L32.4764 9.44751V20.024H30.7474V6.52218H32.3349Z"
        fill="#00D448" />
</svg>
    